<svg width="400" height="400" viewBox="0 0 400 400" xmlns="http://www.w3.org/2000/svg">
  <rect width="400" height="400" fill="black" />
  
  <rect x="10" y="10" width="80" height="70" rx="10" fill="#f2f2f2" />
  <rect x="100" y="10" width="190" height="70" rx="10" fill="#f2f2f2" />
  <rect x="300" y="10" width="90" height="70" rx="10" fill="#f2f2f2" />
  
  <rect x="10" y="90" width="185" height="70" rx="10" fill="#f2f2f2" />
  <rect x="205" y="90" width="185" height="70" rx="10" fill="#f2f2f2" />
  
  <rect x="10" y="170" width="90" height="70" rx="10" fill="#f2f2f2" />
  <rect x="110" y="170" width="180" height="70" rx="10" fill="#f2f2f2" />
  <rect x="300" y="170" width="90" height="70" rx="10" fill="#f2f2f2" />
  
  <rect x="10" y="250" width="185" height="70" rx="10" fill="#f2f2f2" />
  <rect x="205" y="250" width="185" height="70" rx="10" fill="#f2f2f2" />
  
  <rect x="10" y="330" width="80" height="60" rx="10" fill="#f2f2f2" />
  <rect x="100" y="330" width="190" height="60" rx="10" fill="#f2f2f2" />
  <rect x="300" y="330" width="90" height="60" rx="10" fill="#f2f2f2" />
</svg>