<svg height="400" viewBox="0 0 400 400" width="400" xmlns="http://www.w3.org/2000/svg"><path d="m0 0h400v400h-400z"/><g fill="#f2f2f2"><rect height="70" rx="10" width="80" x="10" y="10"/><rect height="70" rx="10" width="190" x="100" y="10"/><rect height="70" rx="10" width="90" x="300" y="10"/><rect height="70" rx="10" width="185" x="10" y="90"/><rect height="70" rx="10" width="185" x="205" y="90"/><rect height="70" rx="10" width="90" x="10" y="170"/><rect height="70" rx="10" width="180" x="110" y="170"/><rect height="70" rx="10" width="90" x="300" y="170"/><rect height="70" rx="10" width="185" x="10" y="250"/><rect height="70" rx="10" width="185" x="205" y="250"/><rect height="60" rx="10" width="80" x="10" y="330"/><rect height="60" rx="10" width="190" x="100" y="330"/><rect height="60" rx="10" width="90" x="300" y="330"/></g></svg>